<svg width="160" height="160" fill="none" xmlns="http://www.w3.org/2000/svg"><g id="Group" stroke="#fff" stroke-width="6" stroke-linecap="round" stroke-linejoin="round"><path id="Path" d="M140 106.667V120c0 11.046-8.954 20-20 20h-20"/><path id="Path_2" d="M20 60V40c0-11.046 8.954-20 20-20h6.667"/><path id="Path_3" d="m41.666 109.248 6.667 6.667 10-10"/><rect id="Rectangle" x="20" y="80" width="60" height="60" rx="16.667"/><path id="Path_4" d="M100 86.667h23.333C132.538 86.667 140 79.205 140 70V36.667C140 27.462 132.538 20 123.333 20h-40c-9.205 0-16.666 7.462-16.666 16.667V60"/><path id="Path_5" fill-rule="evenodd" clip-rule="evenodd" d="M92.334 20h22v16.667A3.333 3.333 0 0 1 111.001 40H95.667a3.333 3.333 0 0 1-3.333-3.333V20h0Z"/></g></svg>