<svg width="160" height="160" fill="none" xmlns="http://www.w3.org/2000/svg"><g id="Group"><g id="Group_2" stroke="#fff" stroke-width="6" stroke-linecap="round" stroke-linejoin="round"><path id="Path" d="M46.667 34.166c-6.907 0-12.5 5.594-12.5 12.5"/><path id="Path_2" d="M40 13.334c-14.727 0-26.667 11.94-26.667 26.666"/><path id="Path_3" d="M33.333 100V66.666"/><path id="Path_4" d="M120 53.334v-6.667c0-7.367-6.02-13.334-13.453-13.334h-39.88"/><path id="Path_5" fill-rule="evenodd" clip-rule="evenodd" d="M133.333 53.334h-27.5c-7.366 0-13.333 5.966-13.333 13.333v60c0 7.366 5.967 13.333 13.333 13.333h27.5c7.367 0 13.334-5.967 13.334-13.333v-60c0-7.367-5.967-13.334-13.334-13.334Z"/><path id="Path_6" d="M113.734 125H125.4"/><path id="Path_7" d="M92.5 100H26.667A6.67 6.67 0 0 0 20 106.667v6.666c0 7.367 5.967 13.334 13.333 13.334H92.5"/></g></g></svg>