<svg width="62" height="62" fill="none" xmlns="http://www.w3.org/2000/svg"><g id="Group" stroke="#fff" stroke-width="3.75" stroke-linecap="round" stroke-linejoin="round"><path id="Path" d="M28.499 51.008c-12.432 0-22.51-10.077-22.51-22.509S16.068 5.989 28.5 5.989c12.432 0 22.51 10.078 22.51 22.51"/><path id="Path_2" d="M38.503 28.499a38.708 38.708 0 0 0-5.42-19.858 5.287 5.287 0 0 0-9.166 0 39.089 39.089 0 0 0 0 39.719 5.307 5.307 0 0 0 4.582 2.648"/><path id="Path_3" fill-rule="evenodd" clip-rule="evenodd" d="M49.906 53.51h-10.3a1.843 1.843 0 0 1-1.778-1.341l-1.75-6.365a1.826 1.826 0 0 1 1.77-2.299h13.819a1.826 1.826 0 0 1 1.778 2.299l-1.751 6.365a1.843 1.843 0 0 1-1.788 1.34Z"/><path id="Path_4" d="m37.478 43.375 5.883-6.753a1.84 1.84 0 0 1 2.773 0l5.9 6.753"/><path id="Path_5" d="M7.273 20.996h41.235"/><path id="Path_6" d="M7.276 36.002H28.5"/></g></svg>