<svg width="160" height="160" fill="none" xmlns="http://www.w3.org/2000/svg"><g id="Group"><g id="Group_2" stroke="#fff" stroke-width="6" stroke-linecap="round" stroke-linejoin="round"><path id="Path" d="m77.448 96.055 10 10-10 10"/><path id="Path_2" d="m63.988 77.448-10 10-10-10"/><path id="Path_3" d="M55.794 104.287c3.794 24.793 13.207 42.38 24.24 42.38 14.387 0 26.054-29.847 26.054-66.667S94.421 13.334 80.035 13.334C65.647 13.334 53.987 43.18 53.987 80v7.447"/><path id="Path_4" d="M87.447 106.052H80c-36.82 0-66.666-11.667-66.666-26.053 0-14.387 29.846-26.054 66.666-26.054 36.82 0 66.667 11.667 66.667 26.054 0 11.033-17.587 20.446-42.38 24.24"/></g></g></svg>