<svg width="160" height="160" fill="none" xmlns="http://www.w3.org/2000/svg"><g id="Group" stroke="#fff" stroke-width="6" stroke-linecap="round" stroke-linejoin="round"><path id="Path" d="M20 146.667V53.333a6.667 6.667 0 0 1 6.667-6.666H40a6.667 6.667 0 0 1 6.667 6.666v93.334"/><path id="Path_2" d="M146.667 146.667H13.333"/><path id="Path_3" d="M33.334 26.667c0-7.364 5.969-13.334 13.333-13.334h20"/><path id="Path_4" d="M46.666 66.666h86.667A6.667 6.667 0 0 1 140 73.334v73.334"/><path id="Path_5" fill-rule="evenodd" clip-rule="evenodd" d="M86.667 113.333H100a6.667 6.667 0 0 1 6.667 6.667v26.667H80V120a6.667 6.667 0 0 1 6.667-6.667Z"/><path id="Path_6" d="M66.666 90H120"/></g></svg>