<svg width="126" height="126" fill="none" xmlns="http://www.w3.org/2000/svg"><g id="Group" stroke="#fff" stroke-width="6" stroke-linecap="round" stroke-linejoin="round"><path id="Path" fill-rule="evenodd" clip-rule="evenodd" d="M36.334 3h53.333a6.667 6.667 0 0 1 6.667 6.667v40C96.334 68.077 81.41 83 63 83v0c-18.41 0-33.333-14.924-33.333-33.333v-40A6.667 6.667 0 0 1 36.334 3Z"/><path id="Path_2" d="M32.444 63h-2.777C14.939 63 3 51.061 3 36.334V23a6.667 6.667 0 0 1 6.667-6.666h20"/><path id="Path_3" d="M93.554 63h2.779C111.061 63 123 51.061 123 36.334V23a6.667 6.667 0 0 0-6.667-6.666h-20"/><path id="Path_4" fill-rule="evenodd" clip-rule="evenodd" d="M87.44 103H38.563a6.667 6.667 0 0 0-6.325 4.558l-2.222 6.667A6.666 6.666 0 0 0 36.34 123h53.323a6.666 6.666 0 0 0 6.324-8.775l-2.222-6.667A6.667 6.667 0 0 0 87.44 103Z"/><path id="Path_5" d="M63 83v20"/></g></svg>