<svg width="160" height="160" viewBox="0 0 160 160" fill="none" xmlns="http://www.w3.org/2000/svg">
<g id="Group">
<path id="Path" d="M20 146.667V53.3332C20 49.6513 22.9848 46.6665 26.6667 46.6665H40C43.6819 46.6665 46.6667 49.6513 46.6667 53.3332V146.667" stroke="white" stroke-width="6" stroke-linecap="round" stroke-linejoin="round"></path>
<path id="Path_2" d="M146.667 146.667H13.3335" stroke="white" stroke-width="6" stroke-linecap="round" stroke-linejoin="round"></path>
<path id="Path_3" d="M33.3335 26.6668C33.3335 19.303 39.303 13.3335 46.6668 13.3335H66.6668" stroke="white" stroke-width="6" stroke-linecap="round" stroke-linejoin="round"></path>
<path id="Path_4" d="M46.6665 66.6665H133.333C137.015 66.6665 140 69.6513 140 73.3332V146.667" stroke="white" stroke-width="6" stroke-linecap="round" stroke-linejoin="round"></path>
<path id="Path_5" fill-rule="evenodd" clip-rule="evenodd" d="M86.6667 113.333H100C103.682 113.333 106.667 116.318 106.667 120V146.667H80V120C80 116.318 82.9848 113.333 86.6667 113.333Z" stroke="white" stroke-width="6" stroke-linecap="round" stroke-linejoin="round"></path>
<path id="Path_6" d="M66.6665 89.9998H120" stroke="white" stroke-width="6" stroke-linecap="round" stroke-linejoin="round"></path>
</g>
</svg>
