<svg width="160" height="160" viewBox="0 0 160 160" fill="none" xmlns="http://www.w3.org/2000/svg">
<g id="Group">
<g id="Group_2">
<path id="Path" d="M46.6667 34.1665C39.7601 34.1665 34.1667 39.7598 34.1667 46.6665" stroke="white" stroke-width="6" stroke-linecap="round" stroke-linejoin="round"></path>
<path id="Path_2" d="M39.9999 13.3335C25.2733 13.3335 13.3333 25.2735 13.3333 40.0002" stroke="white" stroke-width="6" stroke-linecap="round" stroke-linejoin="round"></path>
<path id="Path_3" d="M33.3333 99.9998V66.6665" stroke="white" stroke-width="6" stroke-linecap="round" stroke-linejoin="round"></path>
<path id="Path_4" d="M120 53.3335V46.6668C120 39.3002 113.98 33.3335 106.547 33.3335H66.6667" stroke="white" stroke-width="6" stroke-linecap="round" stroke-linejoin="round"></path>
<path id="Path_5" fill-rule="evenodd" clip-rule="evenodd" d="M133.333 53.3335H105.833C98.4667 53.3335 92.5 59.3002 92.5 66.6668V126.667C92.5 134.033 98.4667 140 105.833 140H133.333C140.7 140 146.667 134.033 146.667 126.667V66.6668C146.667 59.3002 140.7 53.3335 133.333 53.3335Z" stroke="white" stroke-width="6" stroke-linecap="round" stroke-linejoin="round"></path>
<path id="Path_6" d="M113.734 125H125.4" stroke="white" stroke-width="6" stroke-linecap="round" stroke-linejoin="round"></path>
<path id="Path_7" d="M92.5 100H26.6667C22.9867 100 20 102.987 20 106.667V113.333C20 120.7 25.9667 126.667 33.3333 126.667H92.5" stroke="white" stroke-width="6" stroke-linecap="round" stroke-linejoin="round"></path>
</g>
</g>
</svg>
