<svg width="61" height="60" fill="none" xmlns="http://www.w3.org/2000/svg"><g id="Group" stroke="#fff" stroke-width="3.75" stroke-linecap="round" stroke-linejoin="round"><path id="Path" d="M48.774 35.208H35.262A2.262 2.262 0 0 1 33 32.946V25"/><circle id="Oval" cx="46.75" cy="48.75" r="3.75"/><path id="Path_2" d="M25.5 25h8.512a11.31 11.31 0 0 1 9.047 4.524l2.738 3.65c.431.575.99 1.04 1.632 1.362l5.307 2.654a5 5 0 0 1 2.764 4.472v3.713a3.375 3.375 0 0 1-3.375 3.375H50.5"/><path id="Path_3" d="M43 48.75h-7.5"/><path id="Path_4" d="M18 41.25h-5"/><rect id="Rectangle" x="5.5" y="35" width="20" height="17.5" rx="5"/><path id="Path_5" d="M53 27.5v-6.999a7.5 7.5 0 0 0-3.97-6.617l-15-8.001a7.5 7.5 0 0 0-7.06 0l-15 8A7.5 7.5 0 0 0 8 20.502V27.5"/></g></svg>