<svg width="62" height="62" viewBox="0 0 62 62" fill="none" xmlns="http://www.w3.org/2000/svg">
<g id="Group">
<path id="Path" d="M28.499 51.0084C16.0674 51.0084 5.98962 40.9306 5.98962 28.499C5.98962 16.0674 16.0674 5.98962 28.499 5.98962C40.9306 5.98962 51.0084 16.0674 51.0084 28.499" stroke="white" stroke-width="3.75" stroke-linecap="round" stroke-linejoin="round"></path>
<path id="Path_2" d="M38.5034 28.499C38.5222 21.5117 36.6494 14.6496 33.0835 8.6407C32.1401 7.00062 30.3923 5.98962 28.5003 5.98962C26.6083 5.98962 24.8605 7.00062 23.9171 8.6407C16.6894 20.8939 16.6894 36.1065 23.9171 48.3597C24.8639 49.9955 26.6091 51.0043 28.4991 51.0083" stroke="white" stroke-width="3.75" stroke-linecap="round" stroke-linejoin="round"></path>
<path id="Path_3" fill-rule="evenodd" clip-rule="evenodd" d="M49.9058 53.5095H39.6065C38.7803 53.5116 38.0536 52.9637 37.8283 52.1689L36.0775 45.8037C35.9302 45.2542 36.0475 44.6674 36.3947 44.2167C36.7419 43.7661 37.2794 43.503 37.8483 43.5052H51.6665C52.2367 43.5006 52.7764 43.7627 53.1253 44.2137C53.4743 44.6648 53.5924 45.2529 53.4448 45.8037L51.694 52.1689C51.4677 52.9673 50.7357 53.5161 49.9058 53.5095Z" stroke="white" stroke-width="3.75" stroke-linecap="round" stroke-linejoin="round"></path>
<path id="Path_4" d="M37.4783 43.3752L43.3607 36.6224C43.7103 36.2219 44.2159 35.9921 44.7475 35.9921C45.2792 35.9921 45.7848 36.2219 46.1344 36.6224L52.0343 43.3752" stroke="white" stroke-width="3.75" stroke-linecap="round" stroke-linejoin="round"></path>
<path id="Path_5" d="M7.27319 20.9959H48.5079" stroke="white" stroke-width="3.75" stroke-linecap="round" stroke-linejoin="round"></path>
<path id="Path_6" d="M7.27563 36.002H28.4995" stroke="white" stroke-width="3.75" stroke-linecap="round" stroke-linejoin="round"></path>
</g>
</svg>
