<svg width="126" height="126" viewBox="0 0 126 126" fill="none" xmlns="http://www.w3.org/2000/svg">
<g id="Group">
<path id="Path" fill-rule="evenodd" clip-rule="evenodd" d="M36.3337 3H89.667C93.3489 3 96.3337 5.98477 96.3337 9.66667V49.6667C96.3337 68.0762 81.4098 83 63.0003 83V83C44.5908 83 29.667 68.0762 29.667 49.6667V9.66667C29.667 5.98477 32.6518 3 36.3337 3Z" stroke="white" stroke-width="6" stroke-linecap="round" stroke-linejoin="round"></path>
<path id="Path_2" d="M32.4445 63.0002H29.6667C14.9391 63.0002 3 51.0611 3 36.3335V23.0002C3 19.3183 5.98477 16.3335 9.66667 16.3335H29.6667" stroke="white" stroke-width="6" stroke-linecap="round" stroke-linejoin="round"></path>
<path id="Path_3" d="M93.5537 63.0002H96.333C111.061 63.0002 123 51.0611 123 36.3335V23.0002C123 19.3183 120.015 16.3335 116.333 16.3335H96.333" stroke="white" stroke-width="6" stroke-linecap="round" stroke-linejoin="round"></path>
<path id="Path_4" fill-rule="evenodd" clip-rule="evenodd" d="M87.4405 103H38.5618C35.6923 103 33.1447 104.836 32.2372 107.558L30.015 114.225C29.3373 116.258 29.6783 118.493 30.9313 120.231C32.1843 121.97 34.1966 123 36.3395 123H89.6627C91.8056 123 93.818 121.97 95.071 120.231C96.324 118.493 96.6649 116.258 95.9872 114.225L93.765 107.558C92.8576 104.836 90.31 103 87.4405 103Z" stroke="white" stroke-width="6" stroke-linecap="round" stroke-linejoin="round"></path>
<path id="Path_5" d="M63.0003 83V103" stroke="white" stroke-width="6" stroke-linecap="round" stroke-linejoin="round"></path>
</g>
</svg>
