<svg width="160" height="160" viewBox="0 0 160 160" fill="none" xmlns="http://www.w3.org/2000/svg">
<g id="Group">
<path id="Path" d="M140 106.667V120C140 131.046 131.046 140 120 140H100" stroke="white" stroke-width="6" stroke-linecap="round" stroke-linejoin="round"></path>
<path id="Path_2" d="M20 60V40C20 28.9543 28.9543 20 40 20H46.6667" stroke="white" stroke-width="6" stroke-linecap="round" stroke-linejoin="round"></path>
<path id="Path_3" d="M41.6665 109.248L48.3332 115.915L58.3332 105.915" stroke="white" stroke-width="6" stroke-linecap="round" stroke-linejoin="round"></path>
<rect id="Rectangle" x="20" y="80" width="60" height="60" rx="16.6667" stroke="white" stroke-width="6" stroke-linecap="round" stroke-linejoin="round"></rect>
<path id="Path_4" d="M99.9998 86.6667H123.333C132.538 86.6667 140 79.2047 140 70V36.6667C140 27.4619 132.538 20 123.333 20H83.3332C74.1284 20 66.6665 27.4619 66.6665 36.6667V60" stroke="white" stroke-width="6" stroke-linecap="round" stroke-linejoin="round"></path>
<path id="Path_5" fill-rule="evenodd" clip-rule="evenodd" d="M92.334 20H114.334V36.6667C114.334 38.5076 112.842 40 111.001 40H95.6673C93.8264 40 92.334 38.5076 92.334 36.6667V20H92.334Z" stroke="white" stroke-width="6" stroke-linecap="round" stroke-linejoin="round"></path>
</g>
</svg>
