<svg width="60" height="60" fill="none" xmlns="http://www.w3.org/2000/svg"><g id="Group"><g id="Group_2" stroke="#fff" stroke-width="3.75" stroke-linecap="round" stroke-linejoin="round"><path id="Path" d="M12.5 40h5"/><path id="Path_2" d="M32.5 47.5H10c-2.763 0-5-2.237-5-5V18.922c0-.675.138-1.345.402-1.965l2.746-6.422A5.001 5.001 0 0 1 12.745 7.5h24.51a5.001 5.001 0 0 1 4.597 3.035l2.745 6.422c.265.623.403 1.29.403 1.965v8.828"/><path id="Path_3" d="M25 7.5v11.1"/><path id="Path_4" d="M44.975 18.6H5"/><path id="Path_5" d="M51.339 31.161c4.881 4.882 4.881 12.796 0 17.678-4.882 4.881-12.796 4.881-17.678 0-4.881-4.882-4.881-12.796 0-17.678 4.882-4.881 12.796-4.881 17.678 0"/><path id="Path_6" d="M46.28 39.903h-5.06v-5.058"/></g></g></svg>