<svg width="24" height="24" fill="none" xmlns="http://www.w3.org/2000/svg"><g id="Group"><g id="Group_2" stroke="#323232" stroke-width="1.5" stroke-linecap="round" stroke-linejoin="round"><path id="Path" d="M17 5.317a20.42 20.42 0 0 1 2.956-.3 1.005 1.005 0 0 1 1.044 1v11.836c0 .542-.433.99-.974.998-3.092.047-5.42.617-8.026 2.15-2.606-1.533-4.934-2.103-8.026-2.149A.996.996 0 0 1 3 17.853V6.016a.995.995 0 0 1 1.017-1c3.071.1 5.389.677 7.983 2.13"/><path id="Path_2" fill-rule="evenodd" clip-rule="evenodd" d="M17 15.238V3.012c0-.729-.766-1.238-1.417-.91-1.756.88-3.236 2.668-3.583 4.51V21c.396-2.099 2.261-4.129 4.331-4.824a.987.987 0 0 0 .669-.938Z"/></g></g></svg>