<svg width="24" height="24" fill="none" xmlns="http://www.w3.org/2000/svg"><g id="Group" stroke="#323232" stroke-width="1.5"><path id="Path" d="M9.347 16.267V6.42a2.41 2.41 0 0 0-2.41-2.411v0a2.412 2.412 0 0 0-2.335 1.806l-2.49 9.61" stroke-linecap="round" stroke-linejoin="round"/><path id="Path_2" d="M8.272 13.728a3.674 3.674 0 1 1-5.196 5.196 3.674 3.674 0 0 1 5.196-5.196"/><g id="Group_2" stroke-linecap="round" stroke-linejoin="round"><path id="Path_3" d="M14.653 16.267V6.42a2.41 2.41 0 0 1 2.411-2.411v0c1.1 0 2.058.743 2.334 1.806l2.49 9.61"/><path id="Path_4" d="M14.653 10A2.656 2.656 0 0 0 12 7.342 2.656 2.656 0 0 0 9.347 10"/><path id="Path_5" d="M9.347 16A2.656 2.656 0 0 1 12 13.342 2.656 2.656 0 0 1 14.653 16"/></g><path id="Path_6" d="M20.924 13.728a3.674 3.674 0 1 1-5.196 5.196 3.674 3.674 0 0 1 5.196-5.196"/></g></svg>