<svg width="28" height="28" viewBox="0 0 28 28" fill="none" xmlns="http://www.w3.org/2000/svg">
    <path fill-rule="evenodd" clip-rule="evenodd" d="M25.48 14C25.48 20.3402 20.3402 25.48 14 25.48C7.65977 25.48 2.52 20.3402 2.52 14C2.52 7.65977 7.65977 2.52 14 2.52C20.3402 2.52 25.48 7.65977 25.48 14ZM28 14C28 21.732 21.732 28 14 28C6.26801 28 0 21.732 0 14C0 6.26801 6.26801 0 14 0C21.732 0 28 6.26801 28 14ZM14.9633 16.9487H12.5913V16.7204C12.5968 14.8328 13.0757 14.2481 13.961 13.6802C14.6571 13.2347 15.186 12.8004 15.186 12.1211C15.186 11.4585 14.6626 11.0186 14.0056 11.0186C13.343 11.0186 12.7527 11.4863 12.736 12.2603H10.1747C10.2081 9.92166 11.9342 8.88041 14.0279 8.88041C16.322 8.88041 17.9868 9.97177 17.9868 11.993C17.9868 13.3238 17.2797 14.1312 16.2106 14.7604C15.3698 15.2615 14.9633 15.7348 14.9633 16.7204V16.9487ZM15.2696 19.1537C15.2584 19.9555 14.5847 20.6014 13.8218 20.6014C13.02 20.6014 12.363 19.9555 12.3741 19.1537C12.363 18.363 13.02 17.7227 13.8218 17.7227C14.5847 17.7227 15.2584 18.363 15.2696 19.1537Z" fill="white"></path>
</svg>