<svg width="60" height="60" viewBox="0 0 60 60" fill="none" xmlns="http://www.w3.org/2000/svg">
<g id="Group">
<g id="Group_2">
<path id="Path" d="M12.5 40H17.5" stroke="white" stroke-width="3.75" stroke-linecap="round" stroke-linejoin="round"/>
<path id="Path_2" d="M32.5 47.5H10C7.2375 47.5 5 45.2625 5 42.5V18.9225C5 18.2475 5.1375 17.5775 5.4025 16.9575L8.1475 10.535C8.935 8.695 10.7425 7.5 12.745 7.5H37.255C39.2575 7.5 41.065 8.695 41.8525 10.535L44.5975 16.9575C44.8625 17.58 45 18.2475 45 18.9225V27.75" stroke="white" stroke-width="3.75" stroke-linecap="round" stroke-linejoin="round"/>
<path id="Path_3" d="M25 7.5V18.6" stroke="white" stroke-width="3.75" stroke-linecap="round" stroke-linejoin="round"/>
<path id="Path_4" d="M44.975 18.5999H5" stroke="white" stroke-width="3.75" stroke-linecap="round" stroke-linejoin="round"/>
<path id="Path_5" d="M51.3388 31.1612C56.2204 36.0427 56.2204 43.9573 51.3388 48.8388C46.4573 53.7204 38.5427 53.7204 33.6612 48.8388C28.7796 43.9573 28.7796 36.0427 33.6612 31.1612C38.5427 26.2796 46.4573 26.2796 51.3388 31.1612" stroke="white" stroke-width="3.75" stroke-linecap="round" stroke-linejoin="round"/>
<path id="Path_6" d="M46.2802 39.9025H41.2202V34.845" stroke="white" stroke-width="3.75" stroke-linecap="round" stroke-linejoin="round"/>
</g>
</g>
</svg>
