<svg width="160" height="160" viewBox="0 0 160 160" fill="none" xmlns="http://www.w3.org/2000/svg">
<g id="Group">
<g id="Group_2">
<path id="Path" d="M77.4478 96.0547L87.4478 106.055L77.4478 116.055" stroke="white" stroke-width="6" stroke-linecap="round" stroke-linejoin="round"/>
<path id="Path_2" d="M63.9878 77.4478L53.9878 87.4478L43.9878 77.4478" stroke="white" stroke-width="6" stroke-linecap="round" stroke-linejoin="round"/>
<path id="Path_3" d="M55.7945 104.287C59.5878 129.08 69.0011 146.667 80.0345 146.667C94.4211 146.667 106.088 116.82 106.088 80.0002C106.088 43.1802 94.4211 13.3335 80.0345 13.3335C65.6478 13.3335 53.9878 43.1802 53.9878 80.0002V87.4468" stroke="white" stroke-width="6" stroke-linecap="round" stroke-linejoin="round"/>
<path id="Path_4" d="M87.4468 106.052H80.0002C43.1802 106.052 13.3335 94.3853 13.3335 79.9986C13.3335 65.612 43.1802 53.9453 80.0002 53.9453C116.82 53.9453 146.667 65.612 146.667 79.9986C146.667 91.032 129.08 100.445 104.287 104.239" stroke="white" stroke-width="6" stroke-linecap="round" stroke-linejoin="round"/>
</g>
</g>
</svg>
