<svg width="61" height="60" viewBox="0 0 61 60" fill="none" xmlns="http://www.w3.org/2000/svg">
<g id="Group">
<path id="Path" d="M48.7738 35.2083H35.2619C34.0127 35.2083 33 34.1956 33 32.9464V25" stroke="white" stroke-width="3.75" stroke-linecap="round" stroke-linejoin="round"/>
<circle id="Oval" cx="46.75" cy="48.75" r="3.75" stroke="white" stroke-width="3.75" stroke-linecap="round" stroke-linejoin="round"/>
<path id="Path_2" d="M25.5 25H34.0119C37.5717 25 40.9237 26.676 43.0595 29.5238L45.7973 33.1742C46.2281 33.7486 46.7867 34.2148 47.4289 34.5359L52.7361 37.1895C54.43 38.0364 55.5 39.7677 55.5 41.6616V45.375C55.5 46.2701 55.1444 47.1286 54.5115 47.7615C53.8786 48.3944 53.0201 48.75 52.125 48.75H50.5" stroke="white" stroke-width="3.75" stroke-linecap="round" stroke-linejoin="round"/>
<path id="Path_3" d="M43 48.75H35.5" stroke="white" stroke-width="3.75" stroke-linecap="round" stroke-linejoin="round"/>
<path id="Path_4" d="M18 41.25H13" stroke="white" stroke-width="3.75" stroke-linecap="round" stroke-linejoin="round"/>
<rect id="Rectangle" x="5.5" y="35" width="20" height="17.5" rx="5" stroke="white" stroke-width="3.75" stroke-linecap="round" stroke-linejoin="round"/>
<path id="Path_5" d="M53 27.5V20.5011C53 17.7314 51.4736 15.1871 49.0298 13.8836L34.0298 5.88255C31.8237 4.70582 29.1763 4.70582 26.9702 5.88255L11.9702 13.8836C9.52644 15.1871 7.99998 17.7314 8 20.5011V27.5" stroke="white" stroke-width="3.75" stroke-linecap="round" stroke-linejoin="round"/>
</g>
</svg>
