<svg width="24" height="24" viewBox="0 0 24 24" fill="none" xmlns="http://www.w3.org/2000/svg">
<g id="Group">
<path id="Path" d="M9.34706 16.267V6.42003C9.34706 5.08803 8.26806 4.00903 6.93606 4.00903V4.00903C5.83706 4.00903 4.87806 4.75203 4.60206 5.81503L2.11206 15.425" stroke="#323232" stroke-width="1.5" stroke-linecap="round" stroke-linejoin="round"/>
<path id="Path_2" d="M8.27191 13.7282C9.7067 15.163 9.7067 17.4892 8.27191 18.924C6.83712 20.3588 4.51088 20.3588 3.07609 18.924C1.6413 17.4892 1.6413 15.163 3.07609 13.7282C4.51088 12.2934 6.83712 12.2934 8.27191 13.7282" stroke="#323232" stroke-width="1.5"/>
<g id="Group_2">
<path id="Path_3" d="M14.6531 16.267V6.42003C14.6531 5.08803 15.7321 4.00903 17.0641 4.00903V4.00903C18.1631 4.00903 19.1221 4.75203 19.3981 5.81503L21.8881 15.425" stroke="#323232" stroke-width="1.5" stroke-linecap="round" stroke-linejoin="round"/>
<path id="Path_4" d="M14.653 10C14.653 8.53204 13.465 7.34204 12 7.34204C10.535 7.34204 9.34705 8.53204 9.34705 10" stroke="#323232" stroke-width="1.5" stroke-linecap="round" stroke-linejoin="round"/>
<path id="Path_5" d="M9.34705 16C9.34705 14.532 10.535 13.342 12 13.342C13.465 13.342 14.653 14.532 14.653 16" stroke="#323232" stroke-width="1.5" stroke-linecap="round" stroke-linejoin="round"/>
</g>
<path id="Path_6" d="M20.9239 13.7282C22.3587 15.163 22.3587 17.4892 20.9239 18.924C19.4891 20.3588 17.1629 20.3588 15.7281 18.924C14.2933 17.4892 14.2933 15.163 15.7281 13.7282C17.1629 12.2934 19.4891 12.2934 20.9239 13.7282" stroke="#323232" stroke-width="1.5"/>
</g>
</svg>
